<?xml version="1.0" encoding="utf-8"?>
<!-- Generator: Adobe Illustrator 22.0.0, SVG Export Plug-In . SVG Version: 6.00 Build 0)  -->
<svg version="1.1" id="Layer_1" xmlns="http://www.w3.org/2000/svg" xmlns:xlink="http://www.w3.org/1999/xlink" x="0px" y="0px"
	 viewBox="0 0 1091 340" style="enable-background:new 0 0 1091 340;" xml:space="preserve">
<style type="text/css">
	.st0{clip-path:url(#SVGID_2_);fill:#0077BD;}
	.st1{clip-path:url(#SVGID_4_);fill:#FF9734;}
	.st2{fill:#0074B9;}
	.st3{fill:#FF9837;}
	.st4{fill:#FF9734;}
	.st5{display:none;fill:#FCFDFD;}
</style>
<g>
	<g>
		<g>
			<defs>
				<rect id="SVGID_1_" x="5" y="11" width="1062.9" height="324"/>
			</defs>
			<clipPath id="SVGID_2_">
				<use xlink:href="#SVGID_1_"  style="overflow:visible;"/>
			</clipPath>
			<path class="st0" d="M258.5,19.6c-32.1,104.5-64.1,209-96.2,313.5c-0.4,0.1-0.8,0.2-1.2,0.2c-0.4-1.1-1.2-2.1-1.2-3.2
				c-0.4-10.5-0.7-20.9-1.1-31.4c-1.1-26.5-2.3-52.9-3.5-79.4c-0.6-13.7-1.2-27.3-1.8-42C105.3,196,57.6,214.6,9.8,233.1
				c-0.4-0.7-0.8-1.4-1.2-2.1L257,18.8C257.5,19.1,258,19.3,258.5,19.6"/>
		</g>
		<g>
			<defs>
				<rect id="SVGID_3_" x="5" y="11" width="1062.9" height="324"/>
			</defs>
			<clipPath id="SVGID_4_">
				<use xlink:href="#SVGID_3_"  style="overflow:visible;"/>
			</clipPath>
			<path class="st1" d="M21.7,199.3C3.1,147.7,19.5,81.1,70.9,42.4c47.9-36,108.4-35,148.9-12.4c-6,5.1-11.7,10.1-17.6,14.7
				c-0.8,0.6-3.1-0.3-4.6-0.9c-14.3-5.5-29.2-8.2-44.4-7.6c-27.7,1-52.6,9.8-74,27.9c-22.3,19-35.9,42.9-40.9,71.5
				c-2.6,14.8-2.1,29.8,0.7,44.6c0.3,1.7-0.2,4.3-1.4,5.5C32.6,190.4,27.3,194.6,21.7,199.3"/>
		</g>
	</g>
	<path class="st2" d="M525.9,162.2c10.8,0,21.3,0.4,31.7-0.1c7.6-0.4,11.3-5,11.5-12.4c0.2-7.5-3.6-12.7-11.2-13.2
		c-10.5-0.6-21.2-0.2-32-0.2V162.2z M564.1,178.4c17.8,11.7,24.5,31,36.7,47.6c-9.1,0-16.9,0.1-24.6-0.1c-1.2,0-2.8-1.5-3.6-2.8
		c-6.9-10-13.9-19.9-20.3-30.2c-6.2-9.9-14.7-13.3-26.4-11.5v44.3h-21.7V118.6c0.1,0,0.3-0.4,0.6-0.4c20.3,0.2,40.6-0.1,60.9,1
		c15.4,0.8,24.7,11.3,26,26.5c1.3,15.1-7,27.1-21.5,31.3C568.4,177.4,566.6,177.8,564.1,178.4"/>
	<path class="st2" d="M686.2,186.1h-24.1v-17.8h46.4c0,13.8,0.1,27.4-0.1,41c0,1.3-1.4,3-2.6,3.9c-21.1,15-43.8,19.5-68.4,9.7
		c-10.8-4.3-18.6-12.3-23.3-22.9c-7.4-16.3-8.4-33.2-2.7-50.1c9-26.8,35.4-39.6,65.6-32.3c16.5,4,25.9,14.5,30.1,31.3
		c-7.2,1.4-14.1,2.7-20.8,4c-0.5-0.3-1-0.4-1.1-0.7c-5.1-12.2-12.4-17.4-24.6-17.2c-13,0.2-23.3,6.6-27.3,18.1
		c-4.5,13-4.3,26.3,1,39.1c5.8,13.8,20.8,19.9,36.5,15.4c1.3-0.4,2.6-0.8,3.8-1.3C689,199.6,686.9,201.6,686.2,186.1"/>
	<path class="st3" d="M262.1,62.3c35.8,38.3,49,103,19.6,158.5c-19.6,36.9-71.2,76.4-90.8,70.8c2.1-7.3,4-14.6,6.4-21.8
		c0.6-1.8,2.5-3.6,4.2-4.4c34.5-15.5,58.3-40.7,68.7-77.2c9.5-33.3,5-65.2-13.1-94.9c-2.3-3.8-3.8-7.2-1.7-11.9
		c2.5-5.8,3.8-12,5.6-18.1C261.2,63,261.5,62.8,262.1,62.3"/>
	<path class="st2" d="M808.2,136.1H751v23.8h53.1V178h-53.2v29.8h59.4v18H729V118.3h79.2V136.1z"/>
	<path class="st2" d="M451.5,182.8c-4.8-12.8-9.5-25.1-14.6-38.7c-5,13.8-9.5,26.1-14.1,38.7H451.5z M491,225.9h-22.7
		c-3.2-8.1-6.5-16.4-9.8-24.9c-13.4,0-26.7-0.1-40.1,0.1c-1.2,0-2.9,1.8-3.5,3.1c-2.5,6-4.7,12.1-6.8,18.2c-0.9,2.6-2,3.7-4.9,3.6
		c-6.3-0.3-12.6-0.1-19.5-0.1c4.8-12.3,9.5-24.2,14.1-36.1c8.8-22.6,17.7-45.2,26.4-67.8c1.2-3.1,2.6-4.5,6.1-4.2
		c4.8,0.4,9.7-0.1,14.5,0.2c1.4,0.1,3.6,1.2,4.1,2.4C463,155,477,189.7,491,224.4C491.1,224.7,491,225.1,491,225.9"/>
	<path class="st2" d="M307.1,136.2v-17.8h85.1v17.5H361v89.9h-21.8v-89.6L307.1,136.2L307.1,136.2z"/>
	<path class="st2" d="M875.1,225.8h-22v-89.5h-31.8v-18h85v17.5h-31.2V225.8z"/>
	<path class="st4" d="M1011.1,136h-31.7v-17.7h84.9v17.5H1033v89.9h-21.9V136z"/>
	<path class="st3" d="M40.1,237.7c7.5-2.9,14.2-5.7,21.1-7.9c1.2-0.4,3.3,1.6,4.7,2.8c8.6,7.5,16.6,15.8,25.9,22.4
		c14.1,10.1,30.4,15.4,47.5,18.2c1.3,0.2,3.4,1.4,3.5,2.3c0.5,5.9,0.6,11.9,0.9,17.9c0.1,2.9-1.3,3.6-4.1,3.3
		c-22.4-2.5-43.3-9.5-61.9-22C63.2,264.9,51,252.8,40.1,237.7"/>
	<rect x="945.4" y="118.3" class="st3" width="21.1" height="107.5"/>
	<rect x="904" y="205.4" class="st2" width="19.9" height="20.3"/>
	<path class="st5" d="M525.9,162.2v-25.9c10.8,0,21.4-0.5,32,0.2c7.6,0.5,11.4,5.7,11.2,13.2c-0.2,7.4-3.9,12-11.5,12.4
		C547.2,162.6,536.8,162.2,525.9,162.2"/>
	<path class="st5" d="M451.5,182.8h-28.8c4.6-12.6,9.1-24.9,14.1-38.7C442,157.7,446.7,170.1,451.5,182.8"/>
</g>
</svg>
